<mxfile host="Electron" modified="2022-10-07T21:37:15.421Z" agent="5.0 (X11; Linux x86_64) AppleWebKit/537.36 (KHTML, like Gecko) draw.io/17.2.2 Chrome/102.0.5005.63 Electron/19.0.3 Safari/537.36" etag="3LmhKFBENno292mHsJe_" compressed="false" version="19.0.3" type="device">
  <diagram id="Us3plNtBLZiHsrY9h-rr" name="Page-1">
    <mxGraphModel dx="1550" dy="936" grid="1" gridSize="10" guides="1" tooltips="1" connect="1" arrows="1" fold="1" page="1" pageScale="1" pageWidth="1169" pageHeight="827" math="0" shadow="0">
      <root>
        <mxCell id="0" />
        <mxCell id="BsFGtp0UWnqIqqDnryxb-1" value="Layer_0" parent="0" />
        <mxCell id="BsFGtp0UWnqIqqDnryxb-2" value="" style="rounded=0;whiteSpace=wrap;html=1;strokeColor=none;fillColor=none;" parent="BsFGtp0UWnqIqqDnryxb-1" vertex="1">
          <mxGeometry x="180" y="20" width="580" height="490" as="geometry" />
        </mxCell>
        <mxCell id="1" value="Layer_1" parent="0" />
        <mxCell id="ErEzplSy893QtnA6ZLf8-3" value="&lt;font style=&quot;font-size: 16px&quot;&gt;Master Wishbone buses (only the top block&lt;br&gt;may have more than one master)&lt;/font&gt;" style="text;html=1;strokeColor=none;fillColor=none;align=center;verticalAlign=middle;whiteSpace=wrap;rounded=0;" parent="1" vertex="1">
          <mxGeometry x="280" y="30" width="340" height="40" as="geometry" />
        </mxCell>
        <mxCell id="ErEzplSy893QtnA6ZLf8-4" value="&lt;font style=&quot;font-size: 16px&quot;&gt;Wishbone crossbar&lt;br&gt;&lt;/font&gt;" style="rounded=1;whiteSpace=wrap;html=1;strokeWidth=2;fillColor=#f5f5f5;strokeColor=#666666;fontColor=#333333;" parent="1" vertex="1">
          <mxGeometry x="330" y="120" width="240" height="60" as="geometry" />
        </mxCell>
        <mxCell id="ErEzplSy893QtnA6ZLf8-8" value="&lt;font style=&quot;font-size: 16px&quot;&gt;Single WB bus&lt;br&gt;for each nested&lt;br&gt;subblock&lt;/font&gt;" style="text;html=1;strokeColor=none;fillColor=none;align=center;verticalAlign=middle;whiteSpace=wrap;rounded=0;" parent="1" vertex="1">
          <mxGeometry x="290" y="280" width="150" height="40" as="geometry" />
        </mxCell>
        <mxCell id="ErEzplSy893QtnA6ZLf8-11" value="&lt;div style=&quot;font-size: 16px&quot;&gt;&lt;font style=&quot;font-size: 16px&quot;&gt;Block&lt;/font&gt;&lt;/div&gt;&lt;div style=&quot;font-size: 16px&quot;&gt;&lt;font style=&quot;font-size: 16px&quot;&gt;A&lt;br&gt;&lt;/font&gt;&lt;/div&gt;" style="rounded=1;whiteSpace=wrap;html=1;strokeWidth=2;fillColor=#f5f5f5;strokeColor=#666666;fontColor=#333333;" parent="1" vertex="1">
          <mxGeometry x="320" y="400" width="80" height="50" as="geometry" />
        </mxCell>
        <mxCell id="ErEzplSy893QtnA6ZLf8-12" value="&lt;div style=&quot;font-size: 16px&quot;&gt;&lt;font style=&quot;font-size: 16px&quot;&gt;Block&lt;/font&gt;&lt;/div&gt;&lt;div style=&quot;font-size: 16px&quot;&gt;&lt;font style=&quot;font-size: 16px&quot;&gt;B&lt;br&gt;&lt;/font&gt;&lt;/div&gt;" style="rounded=1;whiteSpace=wrap;html=1;strokeWidth=2;fillColor=#f5f5f5;strokeColor=#666666;fontColor=#333333;" parent="1" vertex="1">
          <mxGeometry x="420" y="400" width="80" height="50" as="geometry" />
        </mxCell>
        <mxCell id="ErEzplSy893QtnA6ZLf8-27" value="" style="endArrow=none;html=1;strokeWidth=3;exitX=0.5;exitY=0;exitDx=0;exitDy=0;edgeStyle=orthogonalEdgeStyle;" parent="1" source="ErEzplSy893QtnA6ZLf8-11" edge="1">
          <mxGeometry width="50" height="50" relative="1" as="geometry">
            <mxPoint x="560" y="420" as="sourcePoint" />
            <mxPoint x="398" y="180" as="targetPoint" />
            <Array as="points">
              <mxPoint x="360" y="360" />
              <mxPoint x="430" y="360" />
              <mxPoint x="430" y="240" />
              <mxPoint x="398" y="240" />
            </Array>
          </mxGeometry>
        </mxCell>
        <mxCell id="ErEzplSy893QtnA6ZLf8-28" value="" style="endArrow=none;html=1;strokeWidth=3;exitX=0.5;exitY=0;exitDx=0;exitDy=0;edgeStyle=orthogonalEdgeStyle;" parent="1" source="ErEzplSy893QtnA6ZLf8-12" edge="1">
          <mxGeometry width="50" height="50" relative="1" as="geometry">
            <mxPoint x="560" y="420" as="sourcePoint" />
            <mxPoint x="440" y="181" as="targetPoint" />
            <Array as="points">
              <mxPoint x="460" y="230" />
              <mxPoint x="440" y="230" />
              <mxPoint x="440" y="181" />
            </Array>
          </mxGeometry>
        </mxCell>
        <mxCell id="ErEzplSy893QtnA6ZLf8-33" value="" style="endArrow=none;html=1;strokeWidth=3;entryX=0.5;entryY=1;entryDx=0;entryDy=0;" parent="1" source="ErEzplSy893QtnA6ZLf8-4" target="ErEzplSy893QtnA6ZLf8-3" edge="1">
          <mxGeometry width="50" height="50" relative="1" as="geometry">
            <mxPoint x="560" y="420" as="sourcePoint" />
            <mxPoint x="450" y="80" as="targetPoint" />
          </mxGeometry>
        </mxCell>
        <mxCell id="ErEzplSy893QtnA6ZLf8-36" value="" style="endArrow=none;html=1;strokeWidth=3;exitX=0.296;exitY=0;exitDx=0;exitDy=0;exitPerimeter=0;entryX=0.356;entryY=1.05;entryDx=0;entryDy=0;entryPerimeter=0;" parent="1" source="ErEzplSy893QtnA6ZLf8-4" target="ErEzplSy893QtnA6ZLf8-3" edge="1">
          <mxGeometry width="50" height="50" relative="1" as="geometry">
            <mxPoint x="460" y="130" as="sourcePoint" />
            <mxPoint x="401" y="72" as="targetPoint" />
          </mxGeometry>
        </mxCell>
        <mxCell id="ErEzplSy893QtnA6ZLf8-37" value="" style="endArrow=none;html=1;strokeWidth=3;exitX=0.692;exitY=-0.033;exitDx=0;exitDy=0;exitPerimeter=0;entryX=0.636;entryY=1;entryDx=0;entryDy=0;entryPerimeter=0;" parent="1" source="ErEzplSy893QtnA6ZLf8-4" target="ErEzplSy893QtnA6ZLf8-3" edge="1">
          <mxGeometry width="50" height="50" relative="1" as="geometry">
            <mxPoint x="411.03999999999996" y="130" as="sourcePoint" />
            <mxPoint x="411.03999999999996" y="82" as="targetPoint" />
          </mxGeometry>
        </mxCell>
        <mxCell id="BsFGtp0UWnqIqqDnryxb-3" value="Layer_2" parent="0" />
        <mxCell id="ErEzplSy893QtnA6ZLf8-17" value="" style="group" parent="BsFGtp0UWnqIqqDnryxb-3" vertex="1" connectable="0">
          <mxGeometry x="200" y="300" width="90" height="210" as="geometry" />
        </mxCell>
        <mxCell id="ErEzplSy893QtnA6ZLf8-5" value="&lt;font style=&quot;font-size: 16px&quot;&gt;ID&lt;/font&gt;" style="rounded=0;whiteSpace=wrap;html=1;strokeWidth=2;fillColor=#f5f5f5;strokeColor=#666666;fontColor=#333333;" parent="ErEzplSy893QtnA6ZLf8-17" vertex="1">
          <mxGeometry width="90" height="30" as="geometry" />
        </mxCell>
        <mxCell id="ErEzplSy893QtnA6ZLf8-6" value="&lt;font style=&quot;font-size: 16px&quot;&gt;VER&lt;/font&gt;" style="rounded=0;whiteSpace=wrap;html=1;strokeWidth=2;fillColor=#f5f5f5;strokeColor=#666666;fontColor=#333333;" parent="ErEzplSy893QtnA6ZLf8-17" vertex="1">
          <mxGeometry y="30" width="90" height="30" as="geometry" />
        </mxCell>
        <mxCell id="ErEzplSy893QtnA6ZLf8-7" value="&lt;div&gt;&lt;font style=&quot;font-size: 16px&quot;&gt;Other registers&lt;/font&gt;&lt;/div&gt;&lt;div&gt;&lt;font style=&quot;font-size: 16px&quot;&gt;or register&lt;/font&gt;&lt;/div&gt;&lt;div&gt;&lt;font style=&quot;font-size: 16px&quot;&gt;vectors&lt;br&gt;&lt;/font&gt;&lt;/div&gt;" style="rounded=0;whiteSpace=wrap;html=1;strokeWidth=2;fillColor=#f5f5f5;strokeColor=#666666;fontColor=#333333;" parent="ErEzplSy893QtnA6ZLf8-17" vertex="1">
          <mxGeometry y="60" width="90" height="130" as="geometry" />
        </mxCell>
        <mxCell id="ErEzplSy893QtnA6ZLf8-29" style="edgeStyle=orthogonalEdgeStyle;rounded=0;orthogonalLoop=1;jettySize=auto;html=1;exitX=0.5;exitY=1;exitDx=0;exitDy=0;strokeWidth=3;" parent="ErEzplSy893QtnA6ZLf8-17" source="ErEzplSy893QtnA6ZLf8-7" target="ErEzplSy893QtnA6ZLf8-7" edge="1">
          <mxGeometry relative="1" as="geometry" />
        </mxCell>
        <mxCell id="ErEzplSy893QtnA6ZLf8-9" value="&lt;font style=&quot;font-size: 16px&quot;&gt;Single WB bus for registers&lt;/font&gt;" style="text;html=1;strokeColor=none;fillColor=none;align=center;verticalAlign=middle;whiteSpace=wrap;rounded=0;" parent="BsFGtp0UWnqIqqDnryxb-3" vertex="1">
          <mxGeometry x="200" y="190" width="150" height="40" as="geometry" />
        </mxCell>
        <mxCell id="ErEzplSy893QtnA6ZLf8-23" value="" style="endArrow=none;html=1;strokeWidth=3;entryX=0.1;entryY=0.983;entryDx=0;entryDy=0;entryPerimeter=0;exitX=0.5;exitY=0;exitDx=0;exitDy=0;edgeStyle=orthogonalEdgeStyle;" parent="BsFGtp0UWnqIqqDnryxb-3" source="ErEzplSy893QtnA6ZLf8-5" target="ErEzplSy893QtnA6ZLf8-4" edge="1">
          <mxGeometry width="50" height="50" relative="1" as="geometry">
            <mxPoint x="560" y="420" as="sourcePoint" />
            <mxPoint x="610" y="370" as="targetPoint" />
          </mxGeometry>
        </mxCell>
        <mxCell id="BsFGtp0UWnqIqqDnryxb-4" value="Layer_3" parent="0" />
        <mxCell id="ErEzplSy893QtnA6ZLf8-10" value="&lt;font style=&quot;font-size: 16px&quot;&gt;Array of WB buses&lt;br&gt;for vector of subblocks&lt;br&gt;(one bus for each block)&lt;/font&gt;" style="text;whiteSpace=wrap;html=1;" parent="BsFGtp0UWnqIqqDnryxb-4" vertex="1">
          <mxGeometry x="560" y="200" width="180" height="60" as="geometry" />
        </mxCell>
        <mxCell id="ErEzplSy893QtnA6ZLf8-13" value="&lt;div style=&quot;font-size: 16px&quot;&gt;&lt;font style=&quot;font-size: 16px&quot;&gt;Block&lt;/font&gt;&lt;/div&gt;&lt;div style=&quot;font-size: 16px&quot;&gt;&lt;font style=&quot;font-size: 16px&quot;&gt;C[0]&lt;br&gt;&lt;/font&gt;&lt;/div&gt;" style="rounded=1;whiteSpace=wrap;html=1;strokeWidth=2;fillColor=#f5f5f5;strokeColor=#666666;fontColor=#333333;" parent="BsFGtp0UWnqIqqDnryxb-4" vertex="1">
          <mxGeometry x="570" y="300" width="80" height="50" as="geometry" />
        </mxCell>
        <mxCell id="ErEzplSy893QtnA6ZLf8-14" value="&lt;div style=&quot;font-size: 16px&quot;&gt;&lt;font style=&quot;font-size: 16px&quot;&gt;Block&lt;/font&gt;&lt;/div&gt;&lt;div style=&quot;font-size: 16px&quot;&gt;&lt;font style=&quot;font-size: 16px&quot;&gt;C[1]&lt;br&gt;&lt;/font&gt;&lt;/div&gt;" style="rounded=1;whiteSpace=wrap;html=1;strokeWidth=2;fillColor=#f5f5f5;strokeColor=#666666;fontColor=#333333;" parent="BsFGtp0UWnqIqqDnryxb-4" vertex="1">
          <mxGeometry x="570" y="350" width="80" height="50" as="geometry" />
        </mxCell>
        <mxCell id="ErEzplSy893QtnA6ZLf8-15" value="&lt;div style=&quot;font-size: 16px&quot;&gt;&lt;font style=&quot;font-size: 16px&quot;&gt;Block&lt;/font&gt;&lt;/div&gt;&lt;div style=&quot;font-size: 16px&quot;&gt;&lt;font style=&quot;font-size: 16px&quot;&gt;C[K-1]&lt;br&gt;&lt;/font&gt;&lt;/div&gt;" style="rounded=1;whiteSpace=wrap;html=1;strokeWidth=2;fillColor=#f5f5f5;strokeColor=#666666;fontColor=#333333;" parent="BsFGtp0UWnqIqqDnryxb-4" vertex="1">
          <mxGeometry x="570" y="440" width="80" height="50" as="geometry" />
        </mxCell>
        <mxCell id="ErEzplSy893QtnA6ZLf8-16" value="&lt;font style=&quot;font-size: 16px&quot;&gt;[...]&lt;/font&gt;" style="text;html=1;align=center;verticalAlign=middle;whiteSpace=wrap;rounded=0;" parent="BsFGtp0UWnqIqqDnryxb-4" vertex="1">
          <mxGeometry x="590" y="410" width="40" height="20" as="geometry" />
        </mxCell>
        <mxCell id="ErEzplSy893QtnA6ZLf8-32" value="" style="endArrow=none;html=1;strokeWidth=3;exitX=0;exitY=0.5;exitDx=0;exitDy=0;entryX=0.792;entryY=1.017;entryDx=0;entryDy=0;entryPerimeter=0;edgeStyle=orthogonalEdgeStyle;" parent="BsFGtp0UWnqIqqDnryxb-4" source="ErEzplSy893QtnA6ZLf8-15" target="ErEzplSy893QtnA6ZLf8-4" edge="1">
          <mxGeometry width="50" height="50" relative="1" as="geometry">
            <mxPoint x="560" y="420" as="sourcePoint" />
            <mxPoint x="610" y="370" as="targetPoint" />
          </mxGeometry>
        </mxCell>
        <mxCell id="ErEzplSy893QtnA6ZLf8-30" value="" style="endArrow=none;html=1;strokeWidth=3;entryX=0;entryY=0.5;entryDx=0;entryDy=0;edgeStyle=orthogonalEdgeStyle;" parent="BsFGtp0UWnqIqqDnryxb-4" target="ErEzplSy893QtnA6ZLf8-13" edge="1">
          <mxGeometry width="50" height="50" relative="1" as="geometry">
            <mxPoint x="550" y="180" as="sourcePoint" />
            <mxPoint x="610" y="370" as="targetPoint" />
            <Array as="points">
              <mxPoint x="550" y="325" />
            </Array>
          </mxGeometry>
        </mxCell>
        <mxCell id="ErEzplSy893QtnA6ZLf8-31" value="" style="endArrow=none;html=1;strokeWidth=3;entryX=0;entryY=0.5;entryDx=0;entryDy=0;edgeStyle=orthogonalEdgeStyle;" parent="BsFGtp0UWnqIqqDnryxb-4" target="ErEzplSy893QtnA6ZLf8-14" edge="1">
          <mxGeometry width="50" height="50" relative="1" as="geometry">
            <mxPoint x="540" y="181" as="sourcePoint" />
            <mxPoint x="610" y="370" as="targetPoint" />
            <Array as="points">
              <mxPoint x="540" y="181" />
              <mxPoint x="540" y="375" />
            </Array>
          </mxGeometry>
        </mxCell>
      </root>
    </mxGraphModel>
  </diagram>
</mxfile>
